<?xml version="1.0" encoding="UTF-8" standalone="no"?>
<!DOCTYPE svg PUBLIC "-//W3C//DTD SVG 1.1//EN" "http://www.w3.org/Graphics/SVG/1.1/DTD/svg11.dtd">
<svg width="100%" height="100%" viewBox="0 0 1022 800" version="1.1" xmlns="http://www.w3.org/2000/svg" xmlns:xlink="http://www.w3.org/1999/xlink" xml:space="preserve" xmlns:serif="http://www.serif.com/" style="fill-rule:evenodd;clip-rule:evenodd;stroke-linejoin:round;stroke-miterlimit:2;">
    <g transform="matrix(1,0,0,1,-258.399,1.7053e-13)">
        <g transform="matrix(1,0,0,1,-199.565,4.98912)">
            <g transform="matrix(1,0,0,1,199.565,-4.98912)">
                <path d="M566.739,-0L1280,-0L1280,800L303.722,800L566.739,-0Z" style="fill:rgb(0,77,68);"/>
            </g>
        </g>
        <g transform="matrix(1,0,0,1,-199.565,4.98912)">
            <g transform="matrix(1,0,0,1,199.565,-4.98912)">
                <path d="M654.673,-0L1280,-0L1280,800L325.21,800L654.673,-0Z" style="fill:rgb(234,255,253);"/>
            </g>
        </g>
        <g transform="matrix(1,0,0,1,-199.565,4.98912)">
            <g id="path1-95" transform="matrix(5.18125,15.515,-15.515,5.18125,687.315,-771.943)">
                <path d="M51.474,14.741C51.311,14.667 51.037,14.641 50.706,14.666C50.22,14.704 50.174,14.69 49.878,14.431C49.611,14.196 49.52,14.163 49.262,14.205C48.676,14.3 47.96,13.834 47.96,13.358C47.96,12.935 49.228,9.874 49.695,9.168C49.883,8.885 49.952,8.843 50.236,8.843C50.628,8.843 53.514,9.39 54.068,9.57C54.725,9.782 54.979,10.237 54.758,10.804C54.651,11.077 54.653,11.144 54.77,11.371C54.983,11.783 54.941,12.181 54.649,12.513C54.509,12.672 54.395,12.887 54.395,12.99C54.395,13.554 53.851,14.091 53.279,14.092C53.051,14.092 52.954,14.134 52.918,14.248C52.771,14.711 51.995,14.976 51.474,14.741L51.474,14.741ZM51.052,13.648C50.955,13.027 50.41,10.712 50.283,10.384L50.161,10.071L50.19,10.367C50.206,10.53 50.355,11.273 50.521,12.018C50.688,12.763 50.848,13.516 50.878,13.69C50.907,13.865 50.971,14.008 51.02,14.008C51.076,14.008 51.088,13.877 51.052,13.648L51.052,13.648ZM49.572,12.589C49.574,12.042 49.629,11.291 49.695,10.92C49.761,10.55 49.8,10.231 49.782,10.213C49.742,10.173 49.599,10.694 49.485,11.296C49.373,11.885 49.373,13.584 49.484,13.584C49.536,13.584 49.57,13.194 49.572,12.589L49.572,12.589ZM52.526,12.671C51.922,11.663 50.624,9.961 50.531,10.054C50.505,10.08 50.71,10.399 50.986,10.763C51.587,11.557 52.452,12.835 52.666,13.246C52.774,13.453 52.829,13.5 52.85,13.402C52.867,13.326 52.721,12.997 52.526,12.671ZM54.141,12.237C54.141,11.964 50.947,9.638 50.789,9.796C50.765,9.82 50.948,9.963 51.195,10.114C51.817,10.495 53.454,11.734 53.755,12.052C54.004,12.315 54.141,12.381 54.141,12.237ZM54.074,10.623C53.721,10.328 51.3,9.46 51.07,9.546C50.997,9.574 51.004,9.598 51.093,9.627C51.904,9.893 53.571,10.51 53.802,10.629C54.189,10.829 54.318,10.826 54.074,10.623L54.074,10.623ZM48.514,10.031C48.302,9.81 48.287,9.763 48.392,9.636C48.543,9.452 49.499,8.829 49.551,8.881C49.618,8.949 48.954,10.282 48.852,10.282C48.798,10.282 48.646,10.169 48.514,10.031ZM50.771,8.739C50.386,8.687 50.165,8.621 50.185,8.563C50.202,8.511 50.474,8.338 50.788,8.179C51.296,7.922 51.375,7.903 51.487,8.016C51.557,8.085 51.635,8.3 51.661,8.493C51.715,8.892 51.784,8.872 50.771,8.739Z" style="fill:rgb(0,77,68);fill-rule:nonzero;"/>
            </g>
        </g>
        <g transform="matrix(1,0,0,1,-199.565,4.98912)">
            <g id="path1-5" transform="matrix(1,0,0,1,199.565,-4.98912)">
                <path d="M275.491,800C276.198,791.993 288.615,767.325 298.226,755.3C303.464,748.746 307.211,742.467 306.553,741.348C305.894,740.229 301.279,736.423 296.296,732.892C285.569,725.291 267.827,705.972 262.313,695.891L258.399,688.735L264.65,687.163C270.225,685.761 299.275,692.595 326.471,701.706L333.274,703.986L341.746,683.746C351.769,659.802 361.651,643.751 366.722,643.177C374.74,642.269 378.019,667.371 373.596,695.797L370.808,713.719L394.67,719.005C450.484,731.37 457.218,742.383 414.883,752.067C405.164,754.29 392.668,756.324 387.115,756.588C381.562,756.85 376.065,757.564 374.899,758.173C373.733,758.781 375.065,765.764 377.859,773.689C381.205,783.18 383.483,792.142 384.61,800L350.826,800C347.745,795.161 345.347,790.335 344.175,786.202C340.165,772.066 334.816,769.932 325.571,778.78C320.44,783.691 304.293,793.655 292.272,800L275.491,800ZM353.924,720.736C356.376,718.389 352.7,714.48 349.09,715.596C346.059,716.533 346.684,721.18 349.956,722.028C351.089,722.322 352.874,721.739 353.924,720.736ZM294.499,705.15C294.833,703.865 294.054,702.541 292.769,702.208C291.485,701.875 290.161,702.653 289.827,703.939C289.494,705.225 290.273,706.548 291.557,706.881C292.842,707.215 294.166,706.436 294.499,705.15ZM365.054,735.909C364.398,733.786 363.089,733.303 361.128,734.455C359.51,735.408 358.629,737.617 359.171,739.368C359.827,741.49 361.135,741.974 363.097,740.819C364.715,739.866 365.596,737.657 365.054,735.906L365.054,735.909ZM358.771,698.645C356.55,694.87 352.909,696.398 354.197,700.565C354.696,702.179 356.346,703.116 357.864,702.647C359.715,702.076 360.013,700.757 358.771,698.645ZM363.194,680.586C363.528,679.301 362.749,677.977 361.464,677.644C360.179,677.311 358.855,678.089 358.522,679.375C358.189,680.661 358.967,681.984 360.252,682.317C361.537,682.651 362.861,681.872 363.194,680.586ZM321.535,759.525C320.879,757.403 319.57,756.919 317.609,758.074C315.99,759.027 315.11,761.237 315.651,762.987C316.307,765.109 317.616,765.593 319.576,764.441C321.195,763.488 322.075,761.278 321.534,759.528L321.535,759.525ZM369.248,791.842C369.581,790.556 368.277,789.096 366.35,788.596C364.423,788.096 362.573,788.739 362.24,790.024C361.907,791.31 363.211,792.77 365.138,793.27C367.065,793.77 368.914,793.127 369.248,791.842ZM361.577,770.948C359.928,768.144 354.53,770.593 355.493,773.707C356.066,775.558 357.382,775.858 359.492,774.626C361.224,773.609 362.161,771.958 361.574,770.96L361.577,770.948ZM406.51,738.969C406.073,737.557 404.561,736.758 403.149,737.196C401.737,737.634 400.939,739.146 401.375,740.557C401.812,741.969 403.324,742.767 404.737,742.33C406.149,741.892 406.947,740.379 406.51,738.969ZM313.072,714.74C312.635,713.328 311.123,712.529 309.711,712.967C308.298,713.405 307.5,714.917 307.937,716.328C308.374,717.74 309.886,718.538 311.299,718.101C312.711,717.663 313.509,716.15 313.072,714.74ZM332.782,744.991C332.127,742.869 330.818,742.386 328.856,743.541C327.238,744.493 326.357,746.703 326.899,748.453C327.554,750.576 328.863,751.059 330.825,749.904C332.443,748.952 333.324,746.742 332.782,744.991ZM387.886,739.191C388.2,737.982 386.88,736.583 384.953,736.083C381.34,735.147 379.597,737.636 381.545,740.949C382.928,743.298 387.124,742.131 387.886,739.191ZM305.571,777.824C305.904,776.538 305.126,775.214 303.841,774.881C302.556,774.548 301.232,775.327 300.899,776.612C300.566,777.898 301.344,779.222 302.629,779.555C303.914,779.888 305.238,779.11 305.571,777.824ZM331.609,725.991C332.325,722.476 326.933,721.758 324.777,725.082C323.613,726.877 324.454,728.029 327.02,728.157C329.278,728.269 331.343,727.294 331.608,725.993L331.609,725.991ZM355.677,755.447C355.356,750.741 350.514,748.719 349.444,752.844C348.917,754.877 350.149,756.974 352.183,757.502C354.218,758.029 355.789,757.106 355.677,755.447Z" style="fill:rgb(0,77,68);"/>
            </g>
        </g>
        <g transform="matrix(1,0,0,1,-199.565,4.98912)">
            <g id="path1-51" serif:id="path1-5" transform="matrix(1,0,0,1,199.565,-4.98912)">
                <path d="M290.103,800C289.318,799.129 288.716,797.829 288.565,796.498L288.566,796.497C287.847,790.149 301.144,763.305 311.305,750.592C316.543,744.037 320.29,737.759 319.632,736.639C318.973,735.521 314.358,731.715 309.374,728.184C298.648,720.582 280.905,701.264 275.392,691.183L271.478,684.026L277.729,682.455C283.304,681.053 312.354,687.886 339.549,696.998L346.353,699.278L354.825,679.037C364.848,655.094 374.73,639.042 379.801,638.468C387.819,637.561 391.098,662.663 386.675,691.089L383.887,709.01L407.749,714.297C463.563,726.661 470.296,737.675 427.962,747.358C418.242,749.582 405.747,751.616 400.194,751.879C394.641,752.141 389.143,752.856 387.977,753.465C386.812,754.072 388.144,761.056 390.938,768.981C394.973,780.426 397.454,791.102 398.239,800L367.112,800C362.516,793.67 358.808,786.973 357.253,781.493C353.244,767.358 347.895,765.223 338.65,774.072C331.87,780.561 305.858,795.871 295.542,800L290.103,800ZM344.687,721.282C345.404,717.768 340.012,717.049 337.856,720.374C336.692,722.168 337.532,723.321 340.099,723.449C342.357,723.561 344.422,722.586 344.687,721.284L344.687,721.282ZM374.656,766.239C373.007,763.436 367.609,765.884 368.572,768.999C369.144,770.849 370.461,771.149 372.571,769.918C374.302,768.901 375.239,767.249 374.652,766.252L374.656,766.239ZM378.132,731.2C377.477,729.078 376.168,728.594 374.207,729.747C372.589,730.699 371.708,732.909 372.249,734.66C372.905,736.782 374.214,737.266 376.176,736.11C377.794,735.158 378.674,732.948 378.133,731.198L378.132,731.2ZM368.755,750.739C368.435,746.033 363.592,744.01 362.522,748.136C361.995,750.169 363.228,752.266 365.262,752.793C367.296,753.321 368.868,752.397 368.755,750.739ZM326.151,710.031C325.714,708.62 324.202,707.821 322.789,708.259C321.377,708.696 320.579,710.209 321.016,711.62C321.453,713.031 322.965,713.83 324.377,713.392C325.79,712.955 326.588,711.442 326.151,710.031ZM419.589,734.26C419.152,732.849 417.64,732.05 416.228,732.488C414.815,732.925 414.017,734.438 414.454,735.849C414.891,737.26 416.403,738.059 417.815,737.621C419.228,737.184 420.026,735.671 419.589,734.26ZM334.613,754.817C333.958,752.695 332.649,752.211 330.687,753.366C329.069,754.319 328.188,756.528 328.73,758.279C329.385,760.401 330.694,760.885 332.655,759.732C334.273,758.78 335.154,756.57 334.613,754.819L334.613,754.817ZM345.861,740.283C345.205,738.161 343.896,737.677 341.935,738.832C340.317,739.785 339.436,741.995 339.977,743.745C340.633,745.867 341.942,746.351 343.903,745.196C345.522,744.244 346.402,742.034 345.861,740.283ZM382.326,787.133C382.66,785.848 381.356,784.387 379.428,783.888C377.501,783.388 375.652,784.03 375.319,785.316C374.985,786.602 376.289,788.062 378.217,788.561C380.144,789.061 381.993,788.419 382.326,787.133ZM371.85,693.937C369.629,690.161 365.987,691.689 367.276,695.857C367.775,697.471 369.425,698.408 370.942,697.939C372.793,697.367 373.091,696.049 371.85,693.937ZM307.578,700.442C307.912,699.156 307.133,697.833 305.848,697.499C304.563,697.166 303.239,697.945 302.906,699.23C302.573,700.516 303.351,701.84 304.636,702.173C305.921,702.506 307.245,701.728 307.578,700.442ZM318.65,773.116C318.983,771.83 318.205,770.506 316.92,770.173C315.635,769.84 314.311,770.618 313.978,771.904C313.644,773.19 314.423,774.513 315.708,774.847C316.993,775.18 318.316,774.401 318.65,773.116ZM400.965,734.482C401.278,733.274 399.958,731.875 398.031,731.375C394.419,730.438 392.676,732.928 394.624,736.241C396.007,738.59 400.203,737.423 400.965,734.482ZM367.002,716.028C369.454,713.681 365.778,709.771 362.168,710.888C359.137,711.824 359.763,716.471 363.034,717.32C364.167,717.613 365.953,717.031 367.002,716.028ZM376.273,675.878C376.606,674.592 375.828,673.269 374.543,672.935C373.258,672.602 371.934,673.381 371.601,674.667C371.267,675.952 372.046,677.276 373.331,677.609C374.616,677.942 375.939,677.164 376.273,675.878Z" style="fill:rgb(17,161,145);"/>
            </g>
        </g>
        <g transform="matrix(1,0,0,1,-199.565,4.98912)">
            <g id="path1-9" transform="matrix(1,0,0,1,199.565,-4.98912)">
                <path d="M1280,697.884C1277.8,697.5 1275.11,696.368 1271.84,694.662C1267.26,692.278 1262.62,690.878 1261.54,691.552C1260.44,692.226 1259.55,699.847 1259.55,708.487C1259.55,752.794 1229.48,782.653 1192.34,775.215L1192.34,775.213C1170,770.74 1161.29,760.419 1162.45,739.809C1163.03,729.45 1164.28,725.452 1168.27,721.205C1178.93,709.86 1195.99,709.689 1203.3,720.854C1207.35,727.032 1205.72,736.223 1200.03,739.266C1196.78,741.006 1196.07,740.412 1195.5,735.515C1194.27,724.887 1181.04,727.625 1181.04,738.506C1181.04,741.334 1183.49,746.108 1186.5,749.115C1191.17,753.783 1193.26,754.408 1200.83,753.393C1213.81,751.651 1221.35,742.54 1221.35,728.59C1221.35,718.917 1220.48,717.067 1210.86,706.447C1198.96,693.304 1196.95,686.623 1198.49,665.281C1199.75,647.772 1207.22,632.107 1221.62,616.789C1227.31,610.732 1231.96,603.808 1231.96,601.404C1231.96,597.533 1230.66,597.033 1220.55,597.033C1214.28,597.033 1205.44,595.437 1200.92,593.488C1196.4,591.538 1185.54,589.389 1176.79,588.713C1162.55,587.613 1160.81,587.001 1160.22,582.892C1159.51,577.895 1161.16,577.073 1176.78,574.633C1184.68,573.397 1188.41,571.019 1198.54,560.767C1207.02,552.181 1213.52,547.603 1219.77,545.816C1224.73,544.4 1232.89,539.959 1237.92,535.947C1247.95,527.937 1251,528.227 1247.08,536.819C1245.68,539.893 1244.91,542.782 1245.37,543.239C1245.83,543.695 1251.12,543.013 1257.12,541.727C1272.83,538.358 1274.52,540.116 1263.11,547.967C1257.6,551.756 1253.57,555.62 1254.15,556.555C1254.73,557.49 1259.76,559.48 1265.33,560.98C1278.67,564.568 1281.48,567.324 1271.79,567.324L1264.07,567.324L1265.29,586.091C1265.97,596.71 1265.39,612.462 1263.94,622.373C1262.53,632.007 1261.91,640.415 1262.55,641.058C1263.19,641.702 1267.41,639.672 1271.92,636.546C1274.69,634.627 1277.53,633.317 1280,632.664L1280,697.884ZM1277.09,665.566C1274.48,665.062 1269.7,665.05 1266.48,665.541C1263.25,666.03 1265.39,666.441 1271.22,666.456C1277.06,666.472 1279.7,666.072 1277.09,665.569L1277.09,665.566ZM1276.53,651.984C1279.07,650.567 1278.86,650.214 1275.47,650.224C1273.13,650.23 1268.84,651.64 1265.92,653.36L1260.61,656.485L1266.98,655.122C1270.48,654.37 1274.78,652.959 1276.53,651.986L1276.53,651.984ZM1276.53,682.141C1276.53,679.898 1271.26,677.639 1266.27,677.745C1263.75,677.795 1264.25,678.688 1268.04,680.853C1274.26,684.41 1276.53,684.754 1276.53,682.141ZM1227.19,572.099C1228.35,568.614 1221.7,566.127 1218.85,568.979C1217.63,570.199 1217.31,572.288 1218.13,573.622C1220,576.656 1226.01,575.648 1227.19,572.099Z" style="fill:rgb(17,161,145);fill-opacity:0.27;"/>
            </g>
        </g>
        <g transform="matrix(1,0,0,1,-199.565,4.98912)">
            <g id="path1-84" transform="matrix(3.94161,0,0,3.94161,519.576,523.25)">
                <path d="M164.672,66.93C164.408,66.874 163.76,66.476 163.231,66.046C162.702,65.616 161.892,65.182 161.431,65.083C160.413,64.864 159.413,64.378 158.372,63.599C155.985,61.812 159.51,59.165 165.035,58.597C166.715,58.424 172.949,58.862 173.263,59.175C173.504,59.415 173.034,59.79 172.127,60.083C171.193,60.384 171.084,60.82 171.869,61.119C172.916,61.517 174.1,61.395 175.352,60.76C176.55,60.153 177.272,60 177.272,60.353C177.272,60.46 177.003,60.913 176.672,61.36C175.946,62.345 175.927,62.774 176.557,64.01C176.989,64.856 176.999,64.96 176.647,64.96C176.429,64.96 175.679,64.632 174.979,64.232C173.781,63.547 173.643,63.521 172.606,63.782C171.222,64.13 171.086,64.345 172.007,64.726C172.907,65.099 172.851,65.696 171.894,65.952C171.402,66.084 170.797,65.993 169.854,65.645C168.15,65.016 166.776,64.854 165.923,65.18C165.355,65.396 165.291,65.507 165.503,65.902C165.969,66.772 165.671,67.141 164.673,66.93L164.672,66.93ZM161.565,62.299C161.654,62.156 161.632,61.944 161.517,61.829C161.234,61.545 160.609,61.958 160.816,62.293C161.025,62.632 161.358,62.635 161.565,62.299L161.565,62.299ZM191.072,66.744C190.676,66.539 190.028,66.066 189.632,65.694C189.236,65.322 188.338,64.832 187.637,64.604C186.881,64.36 185.969,63.818 185.398,63.275C184.556,62.474 184.469,62.295 184.706,61.852C185.093,61.128 186.7,60.024 188.278,59.397C189.472,58.923 190.074,58.858 193.352,58.849C197.328,58.838 199.02,59.024 199.732,59.545C200.145,59.847 200.109,59.899 199.225,60.271L198.272,60.673L198.839,61.136C199.683,61.827 201.043,61.734 202.555,60.88C204.496,59.785 204.934,60.005 203.792,61.501C203.1,62.409 203.069,62.622 203.527,63.349C203.712,63.641 203.935,64.123 204.023,64.42C204.262,65.219 203.64,65.118 201.964,64.083C200.549,63.21 200.537,63.207 199.227,63.5C198.504,63.662 197.913,63.868 197.914,63.957C197.915,64.047 198.293,64.377 198.754,64.691C199.215,65.005 199.592,65.35 199.592,65.457C199.592,66.162 197.633,66.155 196.24,65.443C195.381,65.004 194.931,64.927 193.88,65.035C193.166,65.109 192.522,65.229 192.448,65.303C192.375,65.376 192.462,65.734 192.646,66.098C192.828,66.461 193.016,66.84 193.065,66.939C193.223,67.263 191.808,67.124 191.072,66.742L191.072,66.744ZM188.685,62.299C188.932,61.899 188.376,61.44 188.045,61.771C187.768,62.048 187.942,62.56 188.312,62.56C188.429,62.56 188.597,62.443 188.685,62.299L188.685,62.299ZM142.553,62.306C142.136,62.038 141.62,61.554 141.408,61.229C141.195,60.905 140.302,60.314 139.423,59.915C137.279,58.943 136.232,58.12 136.232,57.405C136.232,56.962 136.636,56.565 138.044,55.623C140.263,54.139 141.68,53.688 144.632,53.528C146.193,53.443 147.486,53.207 148.731,52.781C150.754,52.088 151.482,52.158 151.222,53.019C151.132,53.317 150.775,53.862 150.43,54.231C149.901,54.796 149.857,54.939 150.157,55.128C150.775,55.519 152.039,55.38 153.512,54.76C154.977,54.144 155.912,53.994 155.912,54.377C155.912,54.497 155.534,55.047 155.072,55.6C154.61,56.153 154.235,56.73 154.239,56.883C154.242,57.035 154.567,57.584 154.959,58.103C155.351,58.621 155.672,59.134 155.672,59.243C155.672,59.647 154.551,59.398 153.272,58.711C152.546,58.32 151.763,58 151.532,58C150.832,58 151.061,58.682 151.954,59.258C152.417,59.556 152.767,59.962 152.732,60.16C152.641,60.677 150.88,60.75 149.763,60.283C149.02,59.973 148.358,59.932 146.239,60.066C143.376,60.247 143.161,60.378 143.775,61.567C143.983,61.968 144.152,62.41 144.152,62.548C144.152,62.951 143.376,62.833 142.553,62.306L142.553,62.306ZM140.552,57.28C140.552,56.734 139.951,56.626 139.755,57.137C139.604,57.529 139.78,57.76 140.232,57.76C140.408,57.76 140.552,57.544 140.552,57.28L140.552,57.28Z" style="fill:rgb(17,161,145);fill-opacity:0.28;fill-rule:nonzero;"/>
            </g>
        </g>
        <g transform="matrix(1,0,0,1,-199.565,4.98912)">
            <g id="path1-8" transform="matrix(1,0,0,1,199.565,-4.98912)">
                <path d="M481.848,800C482.917,795.587 481.164,792.73 475.949,786.014C470.36,778.817 468.776,773.227 472.324,773.227C474.834,773.227 480.469,776.184 489.11,782.034C500.869,789.995 505.644,786.837 497.96,776.182C491.719,767.534 490.779,765.293 491.748,761.435C493.037,756.296 500.835,749.606 508.389,747.157C517.939,744.061 531.018,742.661 539.471,743.832C543.492,744.381 547.19,744.604 547.689,744.309C549.72,743.114 543.299,733.893 537.307,729.4C529.198,723.32 516.555,716.463 509.828,714.498C498.659,711.234 506.313,708.747 519.234,711.44C535.887,714.913 549.252,722.601 564.911,737.717C576.217,748.631 580.141,753.81 589.501,770.173C597.79,784.664 601.222,788.634 608.168,791.767C611.024,793.055 613.36,794.935 613.36,795.945C613.36,797.177 612.974,798.547 612.258,800L557.217,800C556.235,792.764 555.854,784.413 556.163,775.757C556.657,761.886 555.961,757.487 554.264,763.759C553.854,765.271 553.18,771.73 552.763,778.113C552.357,784.338 552.821,792.541 553.796,800L539.772,800C539.424,790.965 539.413,781.545 539.962,776.627C540.747,769.608 540.791,764.914 540.078,764.201C537.12,761.244 535.774,777.576 536.758,800L522.179,800C521.897,791.007 522.412,781.641 523.71,774.14C524.748,768.138 522.423,768.064 520.451,774.039C519.526,776.842 519.384,788.063 519.883,800L481.848,800ZM574.879,792.773C574.879,795.012 575.614,795.931 577.633,796.218C579.285,796.452 580.682,795.841 581.124,794.691C582.34,791.521 580.635,788.902 577.633,789.328C575.614,789.614 574.879,790.534 574.879,792.773ZM508.118,773.436C506.502,780.631 507.602,780.466 511.039,772.999C515.936,762.36 522.104,757.657 535.788,754.126L539.452,753.181L535.57,752.749C522.939,751.345 511.073,760.287 508.118,773.436Z" style="fill:rgb(17,161,145);fill-opacity:0.35;"/>
            </g>
        </g>
        <g transform="matrix(1,0,0,1,-199.565,4.98912)">
            <g id="path1-951" serif:id="path1-95" transform="matrix(5.18125,15.515,-15.515,5.18125,699.086,-781.752)">
                <path d="M51.474,14.741C51.311,14.667 51.037,14.641 50.706,14.666C50.22,14.704 50.174,14.69 49.878,14.431C49.611,14.196 49.52,14.163 49.262,14.205C48.676,14.3 47.96,13.834 47.96,13.358C47.96,12.935 49.228,9.874 49.695,9.168C49.883,8.885 49.952,8.843 50.236,8.843C50.628,8.843 53.514,9.39 54.068,9.57C54.725,9.782 54.979,10.237 54.758,10.804C54.651,11.077 54.653,11.144 54.77,11.371C54.983,11.783 54.941,12.181 54.649,12.513C54.509,12.672 54.395,12.887 54.395,12.99C54.395,13.554 53.851,14.091 53.279,14.092C53.051,14.092 52.954,14.134 52.918,14.248C52.771,14.711 51.995,14.976 51.474,14.741L51.474,14.741ZM51.052,13.648C50.955,13.027 50.41,10.712 50.283,10.384L50.161,10.071L50.19,10.367C50.206,10.53 50.355,11.273 50.521,12.018C50.688,12.763 50.848,13.516 50.878,13.69C50.907,13.865 50.971,14.008 51.02,14.008C51.076,14.008 51.088,13.877 51.052,13.648L51.052,13.648ZM49.572,12.589C49.574,12.042 49.629,11.291 49.695,10.92C49.761,10.55 49.8,10.231 49.782,10.213C49.742,10.173 49.599,10.694 49.485,11.296C49.373,11.885 49.373,13.584 49.484,13.584C49.536,13.584 49.57,13.194 49.572,12.589L49.572,12.589ZM52.526,12.671C51.922,11.663 50.624,9.961 50.531,10.054C50.505,10.08 50.71,10.399 50.986,10.763C51.587,11.557 52.452,12.835 52.666,13.246C52.774,13.453 52.829,13.5 52.85,13.402C52.867,13.326 52.721,12.997 52.526,12.671ZM54.141,12.237C54.141,11.964 50.947,9.638 50.789,9.796C50.765,9.82 50.948,9.963 51.195,10.114C51.817,10.495 53.454,11.734 53.755,12.052C54.004,12.315 54.141,12.381 54.141,12.237ZM54.074,10.623C53.721,10.328 51.3,9.46 51.07,9.546C50.997,9.574 51.004,9.598 51.093,9.627C51.904,9.893 53.571,10.51 53.802,10.629C54.189,10.829 54.318,10.826 54.074,10.623L54.074,10.623ZM48.514,10.031C48.302,9.81 48.287,9.763 48.392,9.636C48.543,9.452 49.499,8.829 49.551,8.881C49.618,8.949 48.954,10.282 48.852,10.282C48.798,10.282 48.646,10.169 48.514,10.031ZM50.771,8.739C50.386,8.687 50.165,8.621 50.185,8.563C50.202,8.511 50.474,8.338 50.788,8.179C51.296,7.922 51.375,7.903 51.487,8.016C51.557,8.085 51.635,8.3 51.661,8.493C51.715,8.892 51.784,8.872 50.771,8.739Z" style="fill:rgb(17,161,145);fill-rule:nonzero;"/>
            </g>
        </g>
    </g>
</svg>
