<?xml version="1.0" encoding="UTF-8" standalone="no"?>
<!DOCTYPE svg PUBLIC "-//W3C//DTD SVG 1.1//EN" "http://www.w3.org/Graphics/SVG/1.1/DTD/svg11.dtd">
<svg width="100%" height="100%" viewBox="0 0 259 123" version="1.1" xmlns="http://www.w3.org/2000/svg" xmlns:xlink="http://www.w3.org/1999/xlink" xml:space="preserve" xmlns:serif="http://www.serif.com/" style="fill-rule:evenodd;clip-rule:evenodd;stroke-linejoin:round;stroke-miterlimit:2;">
    <g transform="matrix(1,0,0,1,-1540.78,-667.185)">
        <g transform="matrix(1.05437,0,0,0.973031,-82.9621,0)">
            <g id="path1-1" transform="matrix(-6.30869,1.72901,1.59563,6.83603,2353.5,-225.372)">
                <path d="M135.556,116.592C135.047,116.083 134.854,116.057 132.203,116.13C127.626,116.256 125.899,115.731 120.679,112.627C117.684,110.846 117.29,110.029 118.833,108.802C119.296,108.434 120.489,107.192 121.484,106.043C123.667,103.52 125.337,102.434 128.113,101.733C129.211,101.457 130.541,100.937 131.069,100.579C132.491,99.615 133.433,99.372 135.747,99.372C138.47,99.372 140.984,100.024 144.029,101.519C146.489,102.727 147.989,103.861 147.989,104.513C147.989,104.715 147.692,105.067 147.329,105.294C146.966,105.521 146.627,105.737 146.575,105.774C146.523,105.811 146.618,106.005 146.785,106.206C147.201,106.708 148.606,106.666 151.349,106.067C152.603,105.794 154.088,105.512 154.649,105.44C155.567,105.323 155.669,105.36 155.669,105.813C155.669,106.145 155.224,106.646 154.367,107.279C153.651,107.808 152.995,108.354 152.91,108.491C152.826,108.628 153.358,109.404 154.093,110.217C154.828,111.029 155.429,111.837 155.429,112.013C155.429,112.614 153.792,112.345 151.294,111.334C148.083,110.034 145.411,109.901 146.26,111.084C147.051,112.186 147.122,112.552 146.648,113.088C146.396,113.373 145.433,113.958 144.509,114.388C142.432,115.355 137.32,117.132 136.616,117.132C136.33,117.132 135.853,116.889 135.556,116.592L135.556,116.592ZM132.178,114.317C133.007,113.827 133.992,112.477 134.298,111.412C134.667,110.125 134.155,109.858 131.566,109.986C130.229,110.052 129.065,110.249 128.549,110.495C127.971,110.772 127.896,110.854 128.309,110.759C128.639,110.683 129.884,110.561 131.075,110.487C133.822,110.316 134.055,110.504 133.253,112.234C132.948,112.893 132.416,113.617 132.072,113.842C131.307,114.344 129.779,114.372 128.662,113.905C127.615,113.467 127.59,113.634 128.609,114.255C129.58,114.847 131.232,114.876 132.178,114.317L132.178,114.317ZM139.914,112.983C143.005,111.855 144.447,111.112 144.143,110.806C144.073,110.736 143.002,111.167 141.762,111.764C140.523,112.361 138.501,113.132 137.269,113.479C136.037,113.825 135.029,114.203 135.029,114.319C135.029,114.648 136.312,114.297 139.914,112.983ZM130.876,112.785C130.637,112.647 129.611,112.491 128.596,112.441C127.58,112.39 126.911,112.4 127.109,112.463C127.528,112.598 130.126,112.983 130.829,113.015C131.279,113.035 131.282,113.021 130.876,112.785L130.876,112.785ZM131.189,111.622C132.489,111.442 132.479,111.44 130.589,111.43C129.533,111.424 128.399,111.507 128.069,111.612C127.265,111.87 129.35,111.877 131.189,111.624L131.189,111.622ZM125.323,108.866C125.697,108.589 125.736,108.434 125.523,108.086C125.19,107.542 124.244,107.522 123.91,108.052C123.726,108.342 123.744,108.556 123.973,108.832C124.364,109.303 124.723,109.312 125.324,108.866L125.323,108.866ZM144.389,105.19C144.389,104.666 141.035,103.116 138.629,102.528C136.125,101.916 132.234,101.567 132.487,101.976C132.581,102.128 133.177,102.252 133.812,102.252C136.709,102.252 141.216,103.466 143.118,104.759C144.048,105.391 144.389,105.507 144.389,105.19L144.389,105.19Z" style="fill:rgb(17,161,145);fill-opacity:0.27;fill-rule:nonzero;"/>
            </g>
        </g>
    </g>
</svg>
