<?xml version="1.0" encoding="UTF-8" standalone="no"?>
<!DOCTYPE svg PUBLIC "-//W3C//DTD SVG 1.1//EN" "http://www.w3.org/Graphics/SVG/1.1/DTD/svg11.dtd">
<svg width="100%" height="100%" viewBox="0 0 550 548" version="1.1" xmlns="http://www.w3.org/2000/svg" xmlns:xlink="http://www.w3.org/1999/xlink" xml:space="preserve" xmlns:serif="http://www.serif.com/" style="fill-rule:evenodd;clip-rule:evenodd;stroke-linejoin:round;stroke-miterlimit:2;">
    <g transform="matrix(1,0,0,1,-2427.59,-425.151)">
        <g transform="matrix(1.05437,0,0,0.973031,-82.9621,0)">
            <g id="path1-94" transform="matrix(24.0801,-12.0268,11.099,26.093,-1842.37,1886.37)">
                <path d="M162.964,41.116C162.964,41.052 163.222,40.656 163.538,40.236C163.854,39.815 164.559,38.576 165.106,37.481C165.881,35.929 166.338,35.322 167.181,34.728L168.262,33.966L166.633,33.685C165.737,33.531 164.41,33.177 163.684,32.9C162.305,32.372 160.818,31.341 161.071,31.086C161.151,31.005 162.663,30.921 164.431,30.901C166.996,30.871 167.825,30.946 168.544,31.271C169.039,31.495 169.447,31.649 169.452,31.615C169.457,31.58 169.491,30.903 169.529,30.111C169.624,28.13 170.219,27.032 171.943,25.654C173.786,24.182 174.117,24.148 173.534,25.491C173.29,26.052 173.015,27.321 172.921,28.311C172.828,29.301 172.6,30.479 172.414,30.928C172.229,31.377 172.116,31.783 172.164,31.831C172.211,31.878 172.725,31.746 173.307,31.537C174.218,31.209 174.668,31.197 176.571,31.443C177.785,31.601 179.162,31.658 179.631,31.57C180.295,31.445 180.484,31.488 180.484,31.763C180.484,32.874 177.154,34.071 174.065,34.071L172.017,34.071L173.01,34.858C173.557,35.29 174.44,36.235 174.974,36.958C175.507,37.68 176.506,38.775 177.194,39.391C177.882,40.006 178.373,40.582 178.286,40.669C178.063,40.892 175.31,40.107 173.953,39.433C172.548,38.736 171.551,37.778 170.897,36.497C170.621,35.955 170.302,35.511 170.188,35.511C170.075,35.511 169.846,35.841 169.678,36.245C169.022,37.83 165.807,40.448 163.855,40.986C163.365,41.122 162.964,41.18 162.964,41.116L162.964,41.116ZM171.604,33.111C171.604,32.979 171.556,32.871 171.498,32.871C171.44,32.871 171.326,32.979 171.244,33.111C171.162,33.244 171.21,33.352 171.35,33.352C171.489,33.352 171.604,33.244 171.604,33.111ZM171.004,32.152C171.086,32.019 171.038,31.911 170.898,31.911C170.759,31.911 170.644,32.019 170.644,32.152C170.644,32.284 170.692,32.392 170.75,32.392C170.808,32.392 170.922,32.284 171.004,32.152Z" style="fill:rgb(17,161,145);fill-opacity:0.25;fill-rule:nonzero;"/>
            </g>
        </g>
    </g>
</svg>
