<?xml version="1.0" encoding="UTF-8" standalone="no"?>
<!DOCTYPE svg PUBLIC "-//W3C//DTD SVG 1.1//EN" "http://www.w3.org/Graphics/SVG/1.1/DTD/svg11.dtd">
<svg width="100%" height="100%" viewBox="0 0 179 173" version="1.1" xmlns="http://www.w3.org/2000/svg" xmlns:xlink="http://www.w3.org/1999/xlink" xml:space="preserve" xmlns:serif="http://www.serif.com/" style="fill-rule:evenodd;clip-rule:evenodd;stroke-linejoin:round;stroke-miterlimit:2;">
    <g transform="matrix(1,0,0,1,-101.665,-282.145)">
        <g transform="matrix(9.11177,0,0,9.11177,-916.83,99.9439)">
            <path id="path1-5" d="M116.231,38.586C116.003,37.993 116.613,35.077 117.274,33.599C117.614,32.838 117.818,32.14 117.727,32.048C117.636,31.957 117.096,31.706 116.528,31.49C115.306,31.026 113.116,29.61 112.333,28.777L111.778,28.185L112.34,27.878C112.842,27.604 115.809,27.537 118.655,27.735L119.367,27.785L119.677,25.625C120.044,23.069 120.595,21.277 121.069,21.096C121.818,20.808 122.76,23.143 123.044,25.99L123.223,27.785L125.652,27.698C131.334,27.495 132.257,28.387 128.423,30.376C127.543,30.833 126.391,31.341 125.863,31.504C125.335,31.668 124.824,31.874 124.727,31.962C124.63,32.05 124.932,32.689 125.399,33.382C126.528,35.058 127.183,36.635 127.183,37.675C127.183,38.505 127.165,38.521 126.403,38.371C125.208,38.134 123.155,36.599 122.469,35.427C121.73,34.167 121.161,34.095 120.492,35.177C119.909,36.121 117.019,38.945 116.636,38.945C116.489,38.945 116.306,38.783 116.231,38.586L116.231,38.586ZM118.543,35.584C118.543,35.452 118.435,35.344 118.303,35.344C118.171,35.344 118.063,35.452 118.063,35.584C118.063,35.717 118.171,35.825 118.303,35.825C118.435,35.825 118.543,35.717 118.543,35.584ZM125.023,35.344C125.023,35.212 124.861,35.104 124.663,35.104C124.465,35.104 124.303,35.212 124.303,35.344C124.303,35.476 124.465,35.584 124.663,35.584C124.861,35.584 125.023,35.476 125.023,35.344ZM119.623,33.424C119.507,33.236 119.369,33.223 119.209,33.383C119.077,33.515 119.047,33.749 119.143,33.904C119.259,34.092 119.397,34.106 119.557,33.946C119.689,33.814 119.719,33.58 119.623,33.425L119.623,33.424ZM123.763,33.524C123.534,33.296 123.076,33.666 123.246,33.942C123.348,34.106 123.482,34.102 123.654,33.931C123.795,33.789 123.844,33.607 123.763,33.526L123.763,33.524ZM120.343,31.744C120.227,31.557 120.089,31.543 119.929,31.703C119.797,31.835 119.767,32.07 119.863,32.225C119.979,32.413 120.117,32.426 120.277,32.266C120.409,32.134 120.439,31.899 120.343,31.744ZM122.808,32.179C122.66,31.734 122.143,31.661 122.143,32.084C122.143,32.293 122.314,32.464 122.523,32.464C122.732,32.464 122.86,32.336 122.808,32.179L122.808,32.179ZM123.223,30.064C123.107,29.877 122.969,29.863 122.809,30.023C122.677,30.155 122.647,30.389 122.743,30.544C122.859,30.732 122.997,30.746 123.157,30.586C123.289,30.454 123.319,30.219 123.223,30.064L123.223,30.064ZM119.756,29.945C119.737,29.588 119.2,29.654 119.075,30.028C119.008,30.229 119.118,30.319 119.368,30.268C119.588,30.222 119.763,30.077 119.756,29.945L119.756,29.945ZM125.503,29.81C125.503,29.686 125.341,29.585 125.143,29.585C124.772,29.585 124.666,29.868 124.937,30.138C125.128,30.33 125.503,30.113 125.503,29.81L125.503,29.81ZM117.69,29.324C117.613,29.199 117.448,29.16 117.323,29.237C117.198,29.315 117.158,29.48 117.236,29.605C117.313,29.73 117.479,29.769 117.604,29.692C117.729,29.615 117.768,29.449 117.69,29.324L117.69,29.324ZM127.29,29.324C127.213,29.199 127.048,29.16 126.923,29.237C126.798,29.315 126.758,29.48 126.836,29.605C126.913,29.73 127.079,29.769 127.204,29.692C127.329,29.615 127.368,29.449 127.29,29.324ZM115.663,28.865C115.663,28.733 115.555,28.625 115.423,28.625C115.291,28.625 115.183,28.733 115.183,28.865C115.183,28.997 115.291,29.105 115.423,29.105C115.555,29.105 115.663,28.997 115.663,28.865ZM121.773,28.882C121.95,28.594 121.499,28.31 121.179,28.507C120.911,28.673 121.087,29.105 121.423,29.105C121.539,29.105 121.697,29.004 121.773,28.882L121.773,28.882ZM121.688,26.634C121.38,26.326 121.068,26.564 121.296,26.933C121.384,27.076 121.566,27.125 121.701,27.042C121.864,26.941 121.86,26.806 121.688,26.634L121.688,26.634ZM121.663,24.785C121.663,24.653 121.555,24.545 121.423,24.545C121.291,24.545 121.183,24.653 121.183,24.785C121.183,24.917 121.291,25.025 121.423,25.025C121.555,25.025 121.663,24.917 121.663,24.785Z" style="fill:rgb(0,77,68);fill-rule:nonzero;"/>
        </g>
        <g transform="matrix(9.11177,0,0,9.11177,-911.279,90.1457)">
            <path id="path1-51" serif:id="path1-5" d="M116.231,38.586C116.003,37.993 116.613,35.077 117.274,33.599C117.614,32.838 117.818,32.14 117.727,32.048C117.636,31.957 117.096,31.706 116.528,31.49C115.306,31.026 113.116,29.61 112.333,28.777L111.778,28.185L112.34,27.878C112.842,27.604 115.809,27.537 118.655,27.735L119.367,27.785L119.677,25.625C120.044,23.069 120.595,21.277 121.069,21.096C121.818,20.808 122.76,23.143 123.044,25.99L123.223,27.785L125.652,27.698C131.334,27.495 132.257,28.387 128.423,30.376C127.543,30.833 126.391,31.341 125.863,31.504C125.335,31.668 124.824,31.874 124.727,31.962C124.63,32.05 124.932,32.689 125.399,33.382C126.528,35.058 127.183,36.635 127.183,37.675C127.183,38.505 127.165,38.521 126.403,38.371C125.208,38.134 123.155,36.599 122.469,35.427C121.73,34.167 121.161,34.095 120.492,35.177C119.909,36.121 117.019,38.945 116.636,38.945C116.489,38.945 116.306,38.783 116.231,38.586L116.231,38.586ZM118.543,35.584C118.543,35.452 118.435,35.344 118.303,35.344C118.171,35.344 118.063,35.452 118.063,35.584C118.063,35.717 118.171,35.825 118.303,35.825C118.435,35.825 118.543,35.717 118.543,35.584ZM125.023,35.344C125.023,35.212 124.861,35.104 124.663,35.104C124.465,35.104 124.303,35.212 124.303,35.344C124.303,35.476 124.465,35.584 124.663,35.584C124.861,35.584 125.023,35.476 125.023,35.344ZM119.623,33.424C119.507,33.236 119.369,33.223 119.209,33.383C119.077,33.515 119.047,33.749 119.143,33.904C119.259,34.092 119.397,34.106 119.557,33.946C119.689,33.814 119.719,33.58 119.623,33.425L119.623,33.424ZM123.763,33.524C123.534,33.296 123.076,33.666 123.246,33.942C123.348,34.106 123.482,34.102 123.654,33.931C123.795,33.789 123.844,33.607 123.763,33.526L123.763,33.524ZM120.343,31.744C120.227,31.557 120.089,31.543 119.929,31.703C119.797,31.835 119.767,32.07 119.863,32.225C119.979,32.413 120.117,32.426 120.277,32.266C120.409,32.134 120.439,31.899 120.343,31.744ZM122.808,32.179C122.66,31.734 122.143,31.661 122.143,32.084C122.143,32.293 122.314,32.464 122.523,32.464C122.732,32.464 122.86,32.336 122.808,32.179L122.808,32.179ZM123.223,30.064C123.107,29.877 122.969,29.863 122.809,30.023C122.677,30.155 122.647,30.389 122.743,30.544C122.859,30.732 122.997,30.746 123.157,30.586C123.289,30.454 123.319,30.219 123.223,30.064L123.223,30.064ZM119.756,29.945C119.737,29.588 119.2,29.654 119.075,30.028C119.008,30.229 119.118,30.319 119.368,30.268C119.588,30.222 119.763,30.077 119.756,29.945L119.756,29.945ZM125.503,29.81C125.503,29.686 125.341,29.585 125.143,29.585C124.772,29.585 124.666,29.868 124.937,30.138C125.128,30.33 125.503,30.113 125.503,29.81L125.503,29.81ZM117.69,29.324C117.613,29.199 117.448,29.16 117.323,29.237C117.198,29.315 117.158,29.48 117.236,29.605C117.313,29.73 117.479,29.769 117.604,29.692C117.729,29.615 117.768,29.449 117.69,29.324L117.69,29.324ZM127.29,29.324C127.213,29.199 127.048,29.16 126.923,29.237C126.798,29.315 126.758,29.48 126.836,29.605C126.913,29.73 127.079,29.769 127.204,29.692C127.329,29.615 127.368,29.449 127.29,29.324ZM115.663,28.865C115.663,28.733 115.555,28.625 115.423,28.625C115.291,28.625 115.183,28.733 115.183,28.865C115.183,28.997 115.291,29.105 115.423,29.105C115.555,29.105 115.663,28.997 115.663,28.865ZM121.773,28.882C121.95,28.594 121.499,28.31 121.179,28.507C120.911,28.673 121.087,29.105 121.423,29.105C121.539,29.105 121.697,29.004 121.773,28.882L121.773,28.882ZM121.688,26.634C121.38,26.326 121.068,26.564 121.296,26.933C121.384,27.076 121.566,27.125 121.701,27.042C121.864,26.941 121.86,26.806 121.688,26.634L121.688,26.634ZM121.663,24.785C121.663,24.653 121.555,24.545 121.423,24.545C121.291,24.545 121.183,24.653 121.183,24.785C121.183,24.917 121.291,25.025 121.423,25.025C121.555,25.025 121.663,24.917 121.663,24.785Z" style="fill:rgb(17,161,145);fill-rule:nonzero;"/>
        </g>
    </g>
</svg>
