<?xml version="1.0" encoding="UTF-8" standalone="no"?>
<!DOCTYPE svg PUBLIC "-//W3C//DTD SVG 1.1//EN" "http://www.w3.org/Graphics/SVG/1.1/DTD/svg11.dtd">
<svg width="100%" height="100%" viewBox="0 0 193 195" version="1.1" xmlns="http://www.w3.org/2000/svg" xmlns:xlink="http://www.w3.org/1999/xlink" xml:space="preserve" xmlns:serif="http://www.serif.com/" style="fill-rule:evenodd;clip-rule:evenodd;stroke-linejoin:round;stroke-miterlimit:2;">
    <g transform="matrix(1,0,0,1,-54.6447,-85.3068)">
        <g transform="matrix(-6.84896,0,0,6.84896,1337.36,-636.408)">
            <path id="path1-8" d="M170.33,133.324C168.543,132.758 167.367,131.593 167.366,130.391C167.366,129.508 166.699,128.063 166.166,127.792C165.968,127.691 164.993,127.231 163.998,126.77C161.361,125.547 159.206,123.493 159.206,122.202C159.206,122.004 159.665,121.635 160.226,121.382C161.591,120.766 162.265,119.986 163.894,117.139C165.733,113.925 166.504,112.907 168.725,110.763C171.801,107.793 174.427,106.283 177.699,105.601C180.237,105.071 181.741,105.56 179.546,106.201C178.225,106.587 175.741,107.934 174.148,109.129C172.971,110.012 171.709,111.823 172.108,112.058C172.206,112.116 172.933,112.072 173.723,111.964C175.383,111.734 177.953,112.009 179.829,112.618C181.313,113.099 182.845,114.413 183.099,115.423C183.289,116.181 183.104,116.621 181.878,118.32C180.368,120.413 181.307,121.034 183.617,119.469C185.314,118.32 186.422,117.739 186.914,117.739C187.612,117.739 187.3,118.837 186.202,120.251C184.695,122.192 184.66,122.493 185.697,124.539C187.179,127.464 186.7,127.858 184.046,125.899C181.197,123.796 180.205,124.427 181.38,127.596C182.167,129.72 182.199,130.82 181.483,131.202C180.482,131.738 177.076,131.191 171.506,129.598C170.7,129.367 170.826,129.867 172.051,131.759C172.643,132.671 173.126,133.508 173.126,133.619C173.126,133.951 171.897,133.821 170.33,133.324L170.33,133.324ZM177.295,126.79C177.652,123.625 177.742,118.756 177.46,117.899C177.072,116.725 176.615,116.74 176.819,117.919C177.22,120.237 177.241,123.461 176.87,125.881C176.411,128.875 176.409,129.021 176.828,128.469C177.007,128.233 177.217,127.477 177.295,126.789L177.295,126.79ZM174.115,125.365C174.531,119.81 174.285,115.285 173.604,115.966C173.464,116.106 173.472,117.028 173.626,118.407C173.861,120.511 173.574,126.809 173.217,127.386C173.144,127.505 173.151,127.777 173.234,127.991C173.566,128.855 173.938,127.747 174.116,125.365L174.115,125.365ZM170.094,126.439C170.743,125.18 171.272,121.156 171.111,118.699C171.029,117.445 170.897,116.176 170.817,115.879C170.483,114.647 170.346,115.511 170.444,118.236C170.549,121.189 170.246,123.961 169.625,125.72C169.33,126.555 169.342,127.099 169.654,127.099C169.709,127.099 169.907,126.802 170.094,126.439L170.094,126.439ZM166.766,121.579C166.766,121.139 166.622,120.959 166.225,120.902C165.636,120.819 165.301,121.333 165.54,121.956C165.626,122.182 165.901,122.302 166.225,122.256C166.622,122.2 166.766,122.019 166.766,121.579ZM179.882,117.78C179.302,115.197 176.971,113.44 174.489,113.716L173.726,113.801L174.446,113.987C177.135,114.68 178.347,115.604 179.309,117.695C179.984,119.161 180.2,119.194 179.882,117.78L179.882,117.78Z" style="fill:rgb(17,161,145);fill-opacity:0.35;fill-rule:nonzero;"/>
        </g>
    </g>
</svg>
