<?xml version="1.0" encoding="UTF-8" standalone="no"?>
<!DOCTYPE svg PUBLIC "-//W3C//DTD SVG 1.1//EN" "http://www.w3.org/Graphics/SVG/1.1/DTD/svg11.dtd">
<svg width="100%" height="100%" viewBox="0 0 424 263" version="1.1" xmlns="http://www.w3.org/2000/svg" xmlns:xlink="http://www.w3.org/1999/xlink" xml:space="preserve" xmlns:serif="http://www.serif.com/" style="fill-rule:evenodd;clip-rule:evenodd;stroke-linejoin:round;stroke-miterlimit:2;">
    <g transform="matrix(1,0,0,1,-856.986,-530.149)">
        <g transform="matrix(1,0,0,1,-199.565,4.98912)">
            <g id="path1-9" transform="matrix(1,0,0,1,199.565,-4.98912)">
                <path d="M1280,697.884C1277.8,697.5 1275.11,696.368 1271.84,694.662C1267.26,692.278 1262.62,690.878 1261.54,691.552C1260.44,692.226 1259.55,699.847 1259.55,708.487C1259.55,752.794 1229.48,782.653 1192.34,775.215L1192.34,775.213C1170,770.74 1161.29,760.419 1162.45,739.809C1163.03,729.45 1164.28,725.452 1168.27,721.205C1178.93,709.86 1195.99,709.689 1203.3,720.854C1207.35,727.032 1205.72,736.223 1200.03,739.266C1196.78,741.006 1196.07,740.412 1195.5,735.515C1194.27,724.887 1181.04,727.625 1181.04,738.506C1181.04,741.334 1183.49,746.108 1186.5,749.115C1191.17,753.783 1193.26,754.408 1200.83,753.393C1213.81,751.651 1221.35,742.54 1221.35,728.59C1221.35,718.917 1220.48,717.067 1210.86,706.447C1198.96,693.304 1196.95,686.623 1198.49,665.281C1199.75,647.772 1207.22,632.107 1221.62,616.789C1227.31,610.732 1231.96,603.808 1231.96,601.404C1231.96,597.533 1230.66,597.033 1220.55,597.033C1214.28,597.033 1205.44,595.437 1200.92,593.488C1196.4,591.538 1185.54,589.389 1176.79,588.713C1162.55,587.613 1160.81,587.001 1160.22,582.892C1159.51,577.895 1161.16,577.073 1176.78,574.633C1184.68,573.397 1188.41,571.019 1198.54,560.767C1207.02,552.181 1213.52,547.603 1219.77,545.816C1224.73,544.4 1232.89,539.959 1237.92,535.947C1247.95,527.937 1251,528.227 1247.08,536.819C1245.68,539.893 1244.91,542.782 1245.37,543.239C1245.83,543.695 1251.12,543.013 1257.12,541.727C1272.83,538.358 1274.52,540.116 1263.11,547.967C1257.6,551.756 1253.57,555.62 1254.15,556.555C1254.73,557.49 1259.76,559.48 1265.33,560.98C1278.67,564.568 1281.48,567.324 1271.79,567.324L1264.07,567.324L1265.29,586.091C1265.97,596.71 1265.39,612.462 1263.94,622.373C1262.53,632.007 1261.91,640.415 1262.55,641.058C1263.19,641.702 1267.41,639.672 1271.92,636.546C1274.69,634.627 1277.53,633.317 1280,632.664L1280,697.884ZM1277.09,665.566C1274.48,665.062 1269.7,665.05 1266.48,665.541C1263.25,666.03 1265.39,666.441 1271.22,666.456C1277.06,666.472 1279.7,666.072 1277.09,665.569L1277.09,665.566ZM1276.53,651.984C1279.07,650.567 1278.86,650.214 1275.47,650.224C1273.13,650.23 1268.84,651.64 1265.92,653.36L1260.61,656.485L1266.98,655.122C1270.48,654.37 1274.78,652.959 1276.53,651.986L1276.53,651.984ZM1276.53,682.141C1276.53,679.898 1271.26,677.639 1266.27,677.745C1263.75,677.795 1264.25,678.688 1268.04,680.853C1274.26,684.41 1276.53,684.754 1276.53,682.141ZM1227.19,572.099C1228.35,568.614 1221.7,566.127 1218.85,568.979C1217.63,570.199 1217.31,572.288 1218.13,573.622C1220,576.656 1226.01,575.648 1227.19,572.099Z" style="fill:rgb(17,161,145);fill-opacity:0.27;"/>
            </g>
        </g>
        <g transform="matrix(1,0,0,1,-199.565,4.98912)">
            <g id="path1-84" transform="matrix(3.94161,0,0,3.94161,519.576,523.25)">
                <path d="M164.672,66.93C164.408,66.874 163.76,66.476 163.231,66.046C162.702,65.616 161.892,65.182 161.431,65.083C160.413,64.864 159.413,64.378 158.372,63.599C155.985,61.812 159.51,59.165 165.035,58.597C166.715,58.424 172.949,58.862 173.263,59.175C173.504,59.415 173.034,59.79 172.127,60.083C171.193,60.384 171.084,60.82 171.869,61.119C172.916,61.517 174.1,61.395 175.352,60.76C176.55,60.153 177.272,60 177.272,60.353C177.272,60.46 177.003,60.913 176.672,61.36C175.946,62.345 175.927,62.774 176.557,64.01C176.989,64.856 176.999,64.96 176.647,64.96C176.429,64.96 175.679,64.632 174.979,64.232C173.781,63.547 173.643,63.521 172.606,63.782C171.222,64.13 171.086,64.345 172.007,64.726C172.907,65.099 172.851,65.696 171.894,65.952C171.402,66.084 170.797,65.993 169.854,65.645C168.15,65.016 166.776,64.854 165.923,65.18C165.355,65.396 165.291,65.507 165.503,65.902C165.969,66.772 165.671,67.141 164.673,66.93L164.672,66.93ZM161.565,62.299C161.654,62.156 161.632,61.944 161.517,61.829C161.234,61.545 160.609,61.958 160.816,62.293C161.025,62.632 161.358,62.635 161.565,62.299L161.565,62.299ZM191.072,66.744C190.676,66.539 190.028,66.066 189.632,65.694C189.236,65.322 188.338,64.832 187.637,64.604C186.881,64.36 185.969,63.818 185.398,63.275C184.556,62.474 184.469,62.295 184.706,61.852C185.093,61.128 186.7,60.024 188.278,59.397C189.472,58.923 190.074,58.858 193.352,58.849C197.328,58.838 199.02,59.024 199.732,59.545C200.145,59.847 200.109,59.899 199.225,60.271L198.272,60.673L198.839,61.136C199.683,61.827 201.043,61.734 202.555,60.88C204.496,59.785 204.934,60.005 203.792,61.501C203.1,62.409 203.069,62.622 203.527,63.349C203.712,63.641 203.935,64.123 204.023,64.42C204.262,65.219 203.64,65.118 201.964,64.083C200.549,63.21 200.537,63.207 199.227,63.5C198.504,63.662 197.913,63.868 197.914,63.957C197.915,64.047 198.293,64.377 198.754,64.691C199.215,65.005 199.592,65.35 199.592,65.457C199.592,66.162 197.633,66.155 196.24,65.443C195.381,65.004 194.931,64.927 193.88,65.035C193.166,65.109 192.522,65.229 192.448,65.303C192.375,65.376 192.462,65.734 192.646,66.098C192.828,66.461 193.016,66.84 193.065,66.939C193.223,67.263 191.808,67.124 191.072,66.742L191.072,66.744ZM188.685,62.299C188.932,61.899 188.376,61.44 188.045,61.771C187.768,62.048 187.942,62.56 188.312,62.56C188.429,62.56 188.597,62.443 188.685,62.299L188.685,62.299ZM142.553,62.306C142.136,62.038 141.62,61.554 141.408,61.229C141.195,60.905 140.302,60.314 139.423,59.915C137.279,58.943 136.232,58.12 136.232,57.405C136.232,56.962 136.636,56.565 138.044,55.623C140.263,54.139 141.68,53.688 144.632,53.528C146.193,53.443 147.486,53.207 148.731,52.781C150.754,52.088 151.482,52.158 151.222,53.019C151.132,53.317 150.775,53.862 150.43,54.231C149.901,54.796 149.857,54.939 150.157,55.128C150.775,55.519 152.039,55.38 153.512,54.76C154.977,54.144 155.912,53.994 155.912,54.377C155.912,54.497 155.534,55.047 155.072,55.6C154.61,56.153 154.235,56.73 154.239,56.883C154.242,57.035 154.567,57.584 154.959,58.103C155.351,58.621 155.672,59.134 155.672,59.243C155.672,59.647 154.551,59.398 153.272,58.711C152.546,58.32 151.763,58 151.532,58C150.832,58 151.061,58.682 151.954,59.258C152.417,59.556 152.767,59.962 152.732,60.16C152.641,60.677 150.88,60.75 149.763,60.283C149.02,59.973 148.358,59.932 146.239,60.066C143.376,60.247 143.161,60.378 143.775,61.567C143.983,61.968 144.152,62.41 144.152,62.548C144.152,62.951 143.376,62.833 142.553,62.306L142.553,62.306ZM140.552,57.28C140.552,56.734 139.951,56.626 139.755,57.137C139.604,57.529 139.78,57.76 140.232,57.76C140.408,57.76 140.552,57.544 140.552,57.28L140.552,57.28Z" style="fill:rgb(17,161,145);fill-opacity:0.28;fill-rule:nonzero;"/>
            </g>
        </g>
    </g>
</svg>
