<?xml version="1.0" encoding="UTF-8" standalone="no"?>
<!DOCTYPE svg PUBLIC "-//W3C//DTD SVG 1.1//EN" "http://www.w3.org/Graphics/SVG/1.1/DTD/svg11.dtd">
<svg width="100%" height="100%" viewBox="0 0 122 124" version="1.1" xmlns="http://www.w3.org/2000/svg" xmlns:xlink="http://www.w3.org/1999/xlink" xml:space="preserve" xmlns:serif="http://www.serif.com/" style="fill-rule:evenodd;clip-rule:evenodd;stroke-linejoin:round;stroke-miterlimit:2;">
    <g transform="matrix(1,0,0,1,-520.502,-23.5482)">
        <g transform="matrix(1,0,0,1,-199.565,4.98912)">
            <g id="path1-95" transform="matrix(5.18125,15.515,-15.515,5.18125,687.315,-771.943)">
                <path d="M51.474,14.741C51.311,14.667 51.037,14.641 50.706,14.666C50.22,14.704 50.174,14.69 49.878,14.431C49.611,14.196 49.52,14.163 49.262,14.205C48.676,14.3 47.96,13.834 47.96,13.358C47.96,12.935 49.228,9.874 49.695,9.168C49.883,8.885 49.952,8.843 50.236,8.843C50.628,8.843 53.514,9.39 54.068,9.57C54.725,9.782 54.979,10.237 54.758,10.804C54.651,11.077 54.653,11.144 54.77,11.371C54.983,11.783 54.941,12.181 54.649,12.513C54.509,12.672 54.395,12.887 54.395,12.99C54.395,13.554 53.851,14.091 53.279,14.092C53.051,14.092 52.954,14.134 52.918,14.248C52.771,14.711 51.995,14.976 51.474,14.741L51.474,14.741ZM51.052,13.648C50.955,13.027 50.41,10.712 50.283,10.384L50.161,10.071L50.19,10.367C50.206,10.53 50.355,11.273 50.521,12.018C50.688,12.763 50.848,13.516 50.878,13.69C50.907,13.865 50.971,14.008 51.02,14.008C51.076,14.008 51.088,13.877 51.052,13.648L51.052,13.648ZM49.572,12.589C49.574,12.042 49.629,11.291 49.695,10.92C49.761,10.55 49.8,10.231 49.782,10.213C49.742,10.173 49.599,10.694 49.485,11.296C49.373,11.885 49.373,13.584 49.484,13.584C49.536,13.584 49.57,13.194 49.572,12.589L49.572,12.589ZM52.526,12.671C51.922,11.663 50.624,9.961 50.531,10.054C50.505,10.08 50.71,10.399 50.986,10.763C51.587,11.557 52.452,12.835 52.666,13.246C52.774,13.453 52.829,13.5 52.85,13.402C52.867,13.326 52.721,12.997 52.526,12.671ZM54.141,12.237C54.141,11.964 50.947,9.638 50.789,9.796C50.765,9.82 50.948,9.963 51.195,10.114C51.817,10.495 53.454,11.734 53.755,12.052C54.004,12.315 54.141,12.381 54.141,12.237ZM54.074,10.623C53.721,10.328 51.3,9.46 51.07,9.546C50.997,9.574 51.004,9.598 51.093,9.627C51.904,9.893 53.571,10.51 53.802,10.629C54.189,10.829 54.318,10.826 54.074,10.623L54.074,10.623ZM48.514,10.031C48.302,9.81 48.287,9.763 48.392,9.636C48.543,9.452 49.499,8.829 49.551,8.881C49.618,8.949 48.954,10.282 48.852,10.282C48.798,10.282 48.646,10.169 48.514,10.031ZM50.771,8.739C50.386,8.687 50.165,8.621 50.185,8.563C50.202,8.511 50.474,8.338 50.788,8.179C51.296,7.922 51.375,7.903 51.487,8.016C51.557,8.085 51.635,8.3 51.661,8.493C51.715,8.892 51.784,8.872 50.771,8.739Z" style="fill:rgb(0,77,68);fill-rule:nonzero;"/>
            </g>
        </g>
        <g transform="matrix(1,0,0,1,-199.565,4.98912)">
            <g id="path1-951" serif:id="path1-95" transform="matrix(5.18125,15.515,-15.515,5.18125,699.086,-781.752)">
                <path d="M51.474,14.741C51.311,14.667 51.037,14.641 50.706,14.666C50.22,14.704 50.174,14.69 49.878,14.431C49.611,14.196 49.52,14.163 49.262,14.205C48.676,14.3 47.96,13.834 47.96,13.358C47.96,12.935 49.228,9.874 49.695,9.168C49.883,8.885 49.952,8.843 50.236,8.843C50.628,8.843 53.514,9.39 54.068,9.57C54.725,9.782 54.979,10.237 54.758,10.804C54.651,11.077 54.653,11.144 54.77,11.371C54.983,11.783 54.941,12.181 54.649,12.513C54.509,12.672 54.395,12.887 54.395,12.99C54.395,13.554 53.851,14.091 53.279,14.092C53.051,14.092 52.954,14.134 52.918,14.248C52.771,14.711 51.995,14.976 51.474,14.741L51.474,14.741ZM51.052,13.648C50.955,13.027 50.41,10.712 50.283,10.384L50.161,10.071L50.19,10.367C50.206,10.53 50.355,11.273 50.521,12.018C50.688,12.763 50.848,13.516 50.878,13.69C50.907,13.865 50.971,14.008 51.02,14.008C51.076,14.008 51.088,13.877 51.052,13.648L51.052,13.648ZM49.572,12.589C49.574,12.042 49.629,11.291 49.695,10.92C49.761,10.55 49.8,10.231 49.782,10.213C49.742,10.173 49.599,10.694 49.485,11.296C49.373,11.885 49.373,13.584 49.484,13.584C49.536,13.584 49.57,13.194 49.572,12.589L49.572,12.589ZM52.526,12.671C51.922,11.663 50.624,9.961 50.531,10.054C50.505,10.08 50.71,10.399 50.986,10.763C51.587,11.557 52.452,12.835 52.666,13.246C52.774,13.453 52.829,13.5 52.85,13.402C52.867,13.326 52.721,12.997 52.526,12.671ZM54.141,12.237C54.141,11.964 50.947,9.638 50.789,9.796C50.765,9.82 50.948,9.963 51.195,10.114C51.817,10.495 53.454,11.734 53.755,12.052C54.004,12.315 54.141,12.381 54.141,12.237ZM54.074,10.623C53.721,10.328 51.3,9.46 51.07,9.546C50.997,9.574 51.004,9.598 51.093,9.627C51.904,9.893 53.571,10.51 53.802,10.629C54.189,10.829 54.318,10.826 54.074,10.623L54.074,10.623ZM48.514,10.031C48.302,9.81 48.287,9.763 48.392,9.636C48.543,9.452 49.499,8.829 49.551,8.881C49.618,8.949 48.954,10.282 48.852,10.282C48.798,10.282 48.646,10.169 48.514,10.031ZM50.771,8.739C50.386,8.687 50.165,8.621 50.185,8.563C50.202,8.511 50.474,8.338 50.788,8.179C51.296,7.922 51.375,7.903 51.487,8.016C51.557,8.085 51.635,8.3 51.661,8.493C51.715,8.892 51.784,8.872 50.771,8.739Z" style="fill:rgb(17,161,145);fill-rule:nonzero;"/>
            </g>
        </g>
    </g>
</svg>
